<mxfile host="app.diagrams.net" modified="2024-03-06T04:59:11.821Z" agent="Mozilla/5.0 (Windows NT 10.0; Win64; x64) AppleWebKit/537.36 (KHTML, like Gecko) Chrome/121.0.0.0 Safari/537.36 OPR/107.0.0.0" version="24.0.2" etag="J2URC9u0mTt37fA_1Ky8" type="github">
  <diagram name="第 1 页" id="pv3BgrX5V_daY-a9tb8e">
    <mxGraphModel>
      <root>
        <mxCell id="0" />
        <mxCell id="1" parent="0" />
      </root>
    </mxGraphModel>
  </diagram>
</mxfile>
